<?xml version="1.0" standalone="no"?>
<!DOCTYPE svg PUBLIC "-//W3C//DTD SVG 20010904//EN"
 "http://www.w3.org/TR/2001/REC-SVG-20010904/DTD/svg10.dtd">
<svg version="1.0" xmlns="http://www.w3.org/2000/svg"
 width="700.000000pt" height="700.000000pt" viewBox="0 0 700.000000 700.000000"
 preserveAspectRatio="xMidYMid meet">
<metadata>
Created by potrace 1.14, written by Peter Selinger 2001-2017
</metadata>
<g transform="translate(0.000000,700.000000) scale(0.100000,-0.100000)"
fill="#000000" stroke="none">
<path d="M1239 6119 c-139 -20 -288 -150 -342 -297 -20 -57 -21 -58 -22 -2292
0 -1229 3 -2259 8 -2289 23 -155 178 -321 333 -357 43 -10 4491 -11 4548 -1
145 25 284 147 339 295 21 57 21 58 22 2282 2 2405 4 2334 -51 2427 -58 100
-151 179 -252 216 -57 20 -58 20 -2298 21 -1232 1 -2261 -2 -2285 -5z m4449
-2620 l-1 -2188 -2187 1 -2187 1 0 2187 -1 2187 2188 0 2188 0 0 -2188z"/>
<path d="M3871 4590 c-10 -7 -8 -417 2 -427 5 -4 128 -8 275 -9 147 -1 268 -2
269 -3 1 0 -175 -178 -390 -394 l-392 -394 -293 291 -293 291 -598 -601 -599
-601 154 -154 154 -154 445 445 445 445 291 -292 292 -292 551 549 551 549 3
-280 2 -279 218 0 218 1 0 657 -1 656 -648 0 c-357 1 -652 -1 -656 -4z"/>
</g>
</svg>
