<svg xmlns="http://www.w3.org/2000/svg" version="1.1" 
xmlns:xlink="http://www.w3.org/1999/xlink" xmlns:svgjs="http://svgjs.dev/svgjs" viewBox="0 0 800 800">
<defs><linearGradient x1="50%" y1="0%" x2="50%" y2="100%" id="ssscribble-grad"><stop stop-color="hsl(206, 2%, 90%)" stop-opacity="1" offset="0%"></stop><stop stop-color="hsl(245, 1%, 95%)" stop-opacity="1" offset="100%"></stop></linearGradient></defs><g fill="none" stroke-width=".5" stroke="currentColor" opacity=".1" stroke-linecap="round"><path d="M1092.23 294.74C1002.48 327.6 858.21 387.33 720.76 474.33 639.61 562.7 638.79 672.02 706.31 778 817.24 840.1 922.87 838.41 989.07 748.62 1004.51 621.69 961.96 513.6 878.57 525.95 768.19 685.14 655.01 908.8 555.24 1021.3 468.84 920.51 405.61 701.58 361.34 614.16 330.54 787.72 308.24 1039.86 286.94 1055.75 269.14 816.02 245.31 649.13 212.45 810.72 179.59 1069.74 139.26 1041.01 95.09 777.1 54.41 633.57 16.93 782.95 -9.21 1007.04 -21.89 1035.23 -12.77 830.88 22.97 612.89 72.1 566.02 138.1 700.54 205.41 865.68 245.73 940.8 249.32 868.69 199.67 713.82 99.24 537.46 -35.84 415.49 -170.86 358.35 -262.46 352.86 -280.35 373.5 -211.88 389.4 -87.11 412.12 50.49 409.82 140.24 376.96 136.32 344.1 46.85 282.23 -83.98 197.54 -207.98 119.67 -270.54 39.25 -253.31 -12.2 -165.59 -12 -36.06 55.84 95.72 181.55 203.89 285.78 265.87 310.71 281.78 192.52 256.19 -15.68 208.73 -189.16 158.32 -176.5 70.47 -53.82 124.54 106.72 173.03 -141.26 205.89 -302.85 238.8 -129.3 274.25 123.11 313.4 119.89 361.79 -113.53 424.4 -263 496.67 -151.5 586.59 96.89 690.59 231.9 791.64 153.61 886.28 -31.08 954.94 -147.2 982.1 -116.48 959.08 38.78 885.12 216.36 737.52 384.69 671.34 333.64 848.66 282.47 992.18 257.44 1088.31 261.88 1092.23 294.74Q1092.23 294.74 1092.23 294.74" opacity="0.21"></path><path d="M1058.23 574.64C977.36 605.16 845.93 651.5 713.16 703.54 620.53 743.74 593.62 765.58 630.55 746.16 717.68 692.47 818.59 596.34 902.08 491.42 954.93 447.28 959.52 498.3 921.23 661.46 848.65 855.58 756.77 975.93 661.86 921.55 565.42 739.81 482.07 585.02 414.56 630.81 355.21 856.23 308.64 1044.42 270.81 981.52 236.13 742.67 204.53 615.37 174.01 776.72 143.5 1023.8 115.52 1032.45 92.66 803.63 72.94 609.6 64 663.57 70.47 875.81 85.11 1018.25 118.21 940.77 167.62 728.47 215.5 547.4 263.57 524.72 296.15 633.26 294.45 789.86 253.69 879.34 169.06 868.06 53.8 770.53 -74.46 633.9 -183.96 506.98 -243.25 392.87 -233.71 317.07 -152.86 269.12 -31.87 233.31 93.37 204.85 174.24 174.34 173.92 143.82 98.32 112.71 -18.95 90.97 -140.94 81.37 -219.87 101.66 -233.85 162.9 -183.44 236.93 -82.79 323.31 38.42 373.82 158.53 338.07 251.92 204.78 309.27 8.19 330.19 -140.33 321.29 -153.84 296.2 -4.54 256.17 175.98 219.63 226.09 194.41 61.29 170.92 -173.3 162.77 -244.64 169.26 -62.39 177.79 154.65 197.87 139.81 228.38 -107.26 258.89 -268.61 298.4 -135.13 347.41 115.49 398.47 190.17 462.13 19.35 538.5 -183.7 616.6 -207.13 703.39 -24.97 790.44 188.53 862.57 274.69 915.27 190.52 934.35 36.38 916.99 -86.77 859.77 -93.99 771.44 -2.82 681.99 149.13 608.71 295.51 580.66 402.07 617 474.37 713.31 508.04 847.07 525.39 976.13 530.89 1057.91 544.13 1058.23 574.64Q1058.23 574.64 1058.23 574.64" opacity="0.33"></path><path d="M1024.23 578.32C951.93 606.48 833.57 616.83 707.88 605.12 608.51 587.62 560.15 542.14 567.61 474.86 625.69 421.69 709.93 387.86 794.95 412.11 869.04 508.56 910.05 669.19 914.64 840.65 887.52 932.86 833.08 895.66 763.74 736.41 682.34 578.51 602.11 544.76 529.98 695.73 459.13 917.25 399.63 1020.72 351.71 896.22 305.4 672.64 268.25 583.62 240.08 742.72 202.99 996.75 186.19 594.35 212.35 725.84 235.67 920.96 269.52 978.58 307.5 864.96 333.43 661.72 347.44 506.21 337.65 468.69 296.13 545.64 221.73 669.75 118.32 769.87 3.97 822.6 -105.52 805.89 -184.25 745.08 -212.35 652.96 -180.03 560.29 -91.52 484.84 23.29 409.26 135.94 356.75 208.24 328.58 211.03 300.41 148.55 297.92 45.78 320.38 -114.38 363.43 -150.24 424.61 -19.58 313.63 93.76 170.11 199.76 5.56 284.43 -108.3 344.85 -107.7 377.15 14.41 387.91 188.33 379.46 272.62 363.3 189.74 348.22 -26.01 323.03 -186.17 327.72 183.62 363.09 -73.26 391.26 -232.36 431.86 -137.63 483.55 96.8 535.23 232.18 597.21 144.74 665.84 -56.13 729.74 -186.45 792.29 -127.44 844.14 59.78 876.79 248.35 884.93 318.95 861.43 263.65 813.67 129.11 741.07 8.92 657.04 -44.11 588.7 -24.95 547.98 55.25 553.89 157.23 613.76 273.32 718.51 370.05 845.2 440.66 958.84 505.49 1027.02 550.15 1024.23 578.32Q1024.23 578.32 1024.23 578.32" opacity="0.61"></path><path d="M990.23 299.96C926.17 325.78 820.98 330.25 704.4 318.93 602.82 313.81 538.44 307.53 519.77 318.99 547.15 362.52 606.49 448.58 679.39 579.58 757.28 718.91 818.48 840.9 854.7 889.66 868.46 839.14 855.25 702.82 821.94 552.29 772.7 496.56 715.07 584.34 656.79 782.63 594.37 952.44 537.88 967.56 490.63 803.69 443.22 607.14 405.91 553.84 380.09 708.72 354.27 927.23 341.16 994.76 339.88 858.6 343.2 584.7 386.73 840.64 403.72 931.71 397.24 816.55 373.39 639.6 325.78 492.14 255.72 420.64 163.91 439.13 59.13 509.75 -40.64 608.4 -123.13 686.17 -169.44 727.03 -169.69 742.21 -120.01 726.62 -28.39 696.52 78.21 657.68 178.17 621.52 242.23 595.7 247.62 569.89 197.41 555.62 109.64 545.78 3.48 527.18 -88.63 495.8 -145.99 435.88 -162.09 350.26 -131.69 229.98 -65.53 91.53 25.9 -18.87 125.48 -74.42 218.8 -36.76 302.28 76.85 365.97 223.18 410.06 311.46 437.76 266.63 452.12 97.21 459.73 -99.64 460.39 -130.78 481.54 215.61 514.82 -39.27 540.64 -194.15 576.14 -135.61 619.06 70.88 660.5 244.73 706.12 244.3 750.89 93.41 788.02 -85.95 816.18 -150.57 828.28 -67.95 823.98 109.45 797.36 276.38 747.72 360.74 688.24 345.82 619.27 260.9 554.71 161.37 515.43 70.16 508.19 26.62 543.22 27.83 619.5 61.12 726.31 114.37 842.44 168.19 940.18 228.19 995.62 274.14 990.23 299.96Q990.23 299.96 990.23 299.96" opacity="0.15"></path><path d="M956.22 179.78C900.04 203.25 807.91 232.4 702.12 271.68 602.54 317.41 527.95 383.64 488.23 474.66 486.74 572.45 517.36 682.47 568.42 780.74 634.78 834.36 698.52 827.24 749.89 746 790.57 626.03 810.61 506.01 811.61 455.13 798.9 517.88 772.95 678.4 739.65 859.08 699.97 948.47 659.58 887.64 622.73 708.45 584.57 547.33 552.75 525.98 529.28 674.64 505.8 876.8 491.79 964.61 485.69 878.06 477.12 605.23 461.24 682.33 431.42 876.38 394.24 892.98 340.5 804.68 269.06 663.1 186.93 513.19 95.35 408.86 4.55 363.1 -70.94 370.5 -122.61 411.49 -138.32 459.39 -115.81 515.84 -54.58 554.28 35.93 570.37 132.67 583.12 220.04 576.8 276.22 553.33 283.73 529.85 244.8 490.34 172.06 433.32 78.23 372.97 -11.48 291.84 -79.38 194.71 -119.06 106.13 -120.75 26.49 -88.39 -17.08 -28.21 -7.5 49.75 63.12 133.49 182.27 219.77 293.09 297.18 353.55 361.63 312.52 416.69 174.05 458.58 -7.05 490.17 -130.84 514.93 -118.4 534.89 27.98 553.7 211.87 570.62 289.37 590.05 196.8 613.52 -5.35 636.99 -154.01 663.39 -127.9 690.74 42.26 716.2 230.51 738.94 304.7 754.86 232.52 763.95 69.04 760.72 -70.42 741.84 -108.74 713.56 -33.41 669.86 114.43 614.34 265.16 536.29 397.58 478.91 302.77 547.16 209.97 632.25 159.63 735.33 136.1 838.22 134.63 920.02 139.61 963.73 156.3 956.24 179.77Q956.22 179.78 956.22 179.78" opacity="0.82"></path><path d="M922.38 407.68C873.91 428.8 794.7 468.8 700.96 524.95 607.02 579.41 527.88 644.58 473.2 709.55 447.31 756.39 449.6 780.22 473.99 764.02 518.04 711.05 569.21 619.62 618.74 511.86 668.08 435.3 705.73 416.14 729.59 482.76 745.5 619.3 748.21 781.88 740.53 895.55 727.33 899.68 708.19 786.89 686.38 614.86 663.02 493.89 639.97 499.91 618.85 640.53 597.72 825.11 579.52 926.54 563.04 886.51 545.01 734 525.73 561.68 502.31 461.35 473.39 474.04 435.89 579.82 387.42 713.8 331 823.16 263.03 856.88 186 814.49 108.78 712.85 32.56 588.87 -33.48 475.77 -79.86 380.79 -101.1 321.76 -90.7 292 -51.5 283.84 15.61 286.85 101.39 288.48 186.98 294.7 261.91 289.41 310.38 268.28 319.25 247.17 290.25 211.21 231.97 165.16 152.21 123.69 69.79 82.24 -1.18 53.79 -55.71 46.92 -82.31 71.15 -80.53 133.55 -53.95 214.09 -6.06 307.75 54.77 381.71 125.82 396.44 197.76 337.7 264.83 206.36 330.1 50.38 386.35 -74.35 433.06 -102.56 475.97 -17.75 511.28 142.53 540.48 286.91 568.28 318.83 592.46 213.18 613.58 28.62 634.71 -112.04 651.77 -113.85 663.81 15.24 676.02 257.85 650.44 161.67 607 -24.7 572.5 -69.33 530.88 -25.13 487.52 79.1 454.37 214.55 431.52 336.31 426.94 421.84 447.16 470.6 492.71 481.56 562.72 471.33 649.18 442.97 743.63 416.23 831.54 401.61 897.97 385.3 931.25 386.55 922.38 407.68Q922.38 407.68 922.38 407.68" opacity="0.39"></path><path d="M888.21 623.49C846.7 642.26 779.74 662.97 698.76 681.58 613.62 695.44 535.55 698.36 472.91 682.54 429.69 653.41 408.38 600.3 406.84 526.89 424.23 457.27 453.4 395.71 487.91 367.28 528.97 392.27 566.62 474.71 597.14 604.75 647.45 768.06 633.05 461.89 606.99 606.73 588.21 772.66 566.11 881.07 540.37 881.2 513.57 778.05 481.24 623.38 442.37 487.51 400.57 418.32 350.65 436.13 292.98 518.36 233.52 635.51 168.91 737.68 103.24 796.5 44.12 806.84 -7.3 767.34 -44.25 697.36 -62.26 605.45 -57.79 514.58 -28.33 436.93 20.53 364.47 87.92 310.06 165.82 271.16 239.54 236.11 302.7 210.33 344.21 191.56 354.36 172.78 334.47 161.88 290.11 161.52 225.52 165.01 154.13 185.26 86.47 225.18 25.69 270.29 -17.07 330.23 -39.01 393.2 -42.47 434.24 -26.01 446.78 5.72 411.83 50.12 328.4 101.89 203.96 155.63 67.27 213.03 -34.5 267.11 -69.15 315.22 -13.73 362.93 108.36 403.73 252.35 437.02 348.25 469.81 340.87 495.84 228.66 514.61 62.73 533.4 -68.08 544.04 -92.33 546.67 -5.14 548.79 148.74 542.15 294.59 527 372.47 511.42 359.12 488.27 270.92 459.81 153.65 422.6 13.07 386.16 79.91 412.07 222.72 453.56 325.08 513.15 409.11 587.7 470.78 669.12 519.14 751.19 550.38 823.04 571.94 874.65 588.74 898.36 604.7 888.23 623.48Q888.21 623.49 888.21 623.49" opacity="1.00"></path><path d="M854.23 485.63C764.48 518.49 620.47 491.44 485.74 412.4 394.85 351.62 365.81 319.85 381.19 415.18 432.13 617.25 481.89 814.15 508.99 790.68 535.11 567.89 532.37 411.13 499.51 572.72 466.65 831.74 406.78 804.33 323.71 558.23 239.66 383.12 138.62 442.77 44.61 603.72 -13.84 739.96 -19.65 745.74 47.14 676.55 157.79 565.5 288.48 477.15 378.23 444.29 374.31 411.43 291.22 437.17 178.26 491.27 66.1 503.51 6.32 446.44 4.72 267.14 46.27 63.12 117.33 -31.38 189.46 119.63 268.68 341.65 329.99 355.74 362.85 96.72 396.37 20.17 349.67 318.62 341.31 78.6 385.97 26.34 480.6 109.39 616.85 227.12 753.9 363.1 850.31 452.77 854.23 485.63Q854.23 485.63 854.23 485.63" opacity="0.42"></path><path d="M820.21 212.34C747.9 240.51 629.75 243.3 508.21 252.61 406.04 300.05 343.63 413.62 318.65 594.11 334.91 772.58 375.01 420.28 346.06 538.73 317.9 772.26 265.8 812.48 198.65 645.68 105.31 381.95 34.48 564.72 132.27 663.23 233.17 676.82 339.9 655.14 412.21 626.97 415.03 598.8 357.68 566.82 270.27 504.42 168.7 411.12 93.29 259.1 57.29 92.13 49.12 10.37 72.63 72.81 110.22 269.74 157.11 415.9 200.03 364.26 228.19 130.73 256.37 -28.36 267.12 64.34 269.04 284.79 280.25 441.23 300.7 423.21 345.78 305.61 418.69 162.03 523.96 92.42 646.18 93.8 754.25 133.29 823.02 184.17 820.23 212.33Q820.21 212.34 820.21 212.34" opacity="0.76"></path><path d="M786.21 235.82C730.04 259.29 637.97 314.27 536.48 404.72 438.41 502.38 360.95 626.92 309.32 730.36 278.29 756.72 263.53 678.16 254.06 510.86 251.12 372.21 240.99 356.01 217.51 504.73 194.04 706.86 159.45 792.14 121.72 717.33 90.51 541.9 68.65 379.25 68.9 297.54 89.77 297.5 142.34 348.52 223.2 397.08 307.49 453.74 390.04 474.15 446.21 450.68 453.72 427.21 418.69 362.08 358.03 264.74 277.89 175.5 206.21 87.85 156.68 57.12 119.19 108.07 107.11 245.82 114.11 404.04 127.86 461.65 149.55 366.86 173.02 164.73 196.5 16.01 219.52 41.72 246.44 197.57 280.12 382.08 328.82 485.54 397.07 489.94 477.36 417.26 573.95 329.36 671.29 272.38 749.15 222.6 793.72 212.34 786.23 235.81Q786.21 235.82 786.21 235.82" opacity="0.35"></path><path d="M752.28 518.89C710.84 537.67 643.84 583.5 566.43 641.28 484.52 684.87 409.95 710.05 349.91 686.74 299.05 618.17 261.59 499.91 234.51 373.49 211.74 309.12 192.14 339.85 173.36 470.68 146.49 689.1 127.25 592.36 157.57 404.92 193 305.2 247.66 250.18 315.8 225.89 379.45 218.69 438.84 212.96 480.28 194.18 490.35 175.4 473.17 145.36 437.31 120.02 383.68 111.77 329.38 137.48 284.88 212.58 214.37 393.18 256.16 56.29 310.48 122.86 352.9 263.04 409.29 401.23 477.22 494.4 546.33 542.33 620.55 546.46 687.93 535.4 737.56 510.17 762.35 500.12 752.28 518.89Q752.28 518.89 752.28 518.89" opacity="0.14"></path><path d="M718.21 613.94C645.9 642.11 528.15 612.24 424.7 480.09 327.91 343.79 262.17 277.62 234 436.73 205.83 670.26 220.57 708.47 280.45 590.44 346.98 410.77 441.9 291.37 514.21 263.2 517.02 235.03 469.82 303.44 417.95 446.18 353.45 527.31 326.38 466.26 354.54 232.73 382.71 73.62 460.78 162.63 562.2 335.84 650.98 504.91 721.02 585.77 718.21 613.94Q718.21 613.94 718.21 613.94" opacity="0.98"></path><path d="M684.24 370.66C575.86 408.22 409.01 246.62 371.46 402.63 333.9 680.4 439.86 586.14 548.24 548.58 535.68 511.03 469.69 544.4 507.25 266.63 544.8 110.62 671.68 333.11 684.24 370.66Q684.24 370.66 684.24 370.66" opacity="0.65">
</path>
</g>
</svg>